<svg xmlns="http://www.w3.org/2000/svg" viewBox="0 0 2857.55 320.51"><defs><style>.cls-1{fill:#ff5100}.cls-2{fill:#3c3c3b}.cls-3{fill:#fff}</style></defs><path class="cls-1" d="M64.01 56.62h203.76v203.76H64.01z"/><path class="cls-2" d="M1610.47 175.4c-7-1.64-20.13-4.66-32.33-12-17.08-10.11-26.54-24.87-27.46-43.18a48.26 48.26 0 0115.56-39.08c15.87-14.8 38.76-18.9 49.76-18.9 31.11 0 48.5 10.12 64.06 19.13l7 4.1-22.29 32.53-7.62-4.37c-13.73-7.93-22.58-13.13-41.18-13.13-2.75 0-13.43 1.91-18.92 7.11-1.83 1.64-4 4.65-3.66 10.93.31 9.84 7.93 15.31 27.46 19.68 2.44.55 4.27 1.1 6.09 1.65 20.44 6.27 36.3 14.75 47.29 25.41 11 10.93 16.78 23.77 16.78 37.44 0 13.39-6.41 27.33-17.09 38-12.5 12.58-29.89 19.68-49.11 19.68a140.74 140.74 0 01-37.52-4.64 120.82 120.82 0 01-50.94-29l31.12-26.24c22.56 21.59 47.88 21.59 57.34 21.59 17.69 0 23.49-14.49 23.49-19.41 0-10.38-13.12-19.94-35.39-26.78l-.91-.27zm320.6-106.69l-69.55 121.35v70.24h-42.71v-70.24L1749 68.71h47.28l43.93 72.15 43.62-72.15zM2035.7 175.4c-7-1.64-20.14-4.66-32.34-12-17.08-10.11-26.54-24.87-27.45-43.18a48.26 48.26 0 0115.56-39.08c15.86-14.76 38.74-18.86 49.72-18.86 31.11 0 48.5 10.12 64 19.13l7 4.1L2090 118l-7.63-4.37c-13.73-7.93-22.57-13.13-41.18-13.13-2.75 0-13.42 1.91-18.92 7.11-1.83 1.64-4 4.65-3.65 10.93.3 9.84 7.93 15.31 27.45 19.68 2.44.55 4.27 1.1 6.1 1.65 20.44 6.27 36.3 14.75 47.28 25.41 11 10.93 16.78 23.77 16.78 37.44 0 13.39-6.41 27.33-17.08 38-12.51 12.58-29.9 19.68-49.12 19.68a140.83 140.83 0 01-37.52-4.64 120.82 120.82 0 01-50.94-29l31.12-26.24c22.57 21.59 47.89 21.59 57.34 21.59 17.7 0 23.5-14.49 23.5-19.41 0-10.38-13.12-19.94-35.39-26.78l-.92-.27zM2331 68.71V107h-59.2v153.3h-42.71V107h-59.48V68.71zm59.46-3.74h142.45v38.26h-142.45z"/><path class="cls-1" d="M2390.46 138.77h118.05v38.26h-118.05z"/><path class="cls-2" d="M2390.46 222.04h141.53v38.26h-141.53zm377.94 39.26V144.06l-61.31 50-61.31-50V261.3h-42.71V69.71h14.64l89.38 72.7 89.07-72.7h15V261.3zM427.83 175.4c-7-1.64-20.14-4.66-32.34-12-17.08-10.15-26.49-24.91-27.49-43.22a48.26 48.26 0 0115.6-39.08c15.86-14.76 38.74-18.86 49.72-18.86 31.11 0 48.5 10.12 64.06 19.13l7 4.1L482.13 118l-7.63-4.37c-13.73-7.93-22.57-13.13-41.18-13.13-2.75 0-13.42 1.91-18.91 7.11-1.83 1.64-4 4.65-3.66 10.93.3 9.84 7.93 15.31 27.45 19.68 2.44.55 4.27 1.1 6.1 1.65 20.44 6.27 36.3 14.75 47.28 25.41 11 10.93 16.78 23.77 16.78 37.44 0 13.39-6.4 27.33-17.08 38-12.51 12.58-29.9 19.68-49.12 19.68a140.72 140.72 0 01-37.51-4.64 120.85 120.85 0 01-50.95-29l31.12-26.24c22.57 21.59 47.89 21.59 57.34 21.59 17.7 0 23.49-14.49 23.49-19.41 0-10.38-13.11-19.94-35.38-26.78l-.92-.27zm340.63-13.9c0 54.66-49.72 99.21-110.73 99.21S547 216.16 547 161.5s49.72-99.21 110.73-99.21 110.73 44.55 110.73 99.21zm-177.53 0c0 33.07 29.89 59.86 66.8 59.86s66.8-26.79 66.8-59.86-29.89-59.85-66.8-59.85-66.8 26.78-66.8 59.85zm375.2 25.15c0 41-37.21 74.06-82.66 74.06-45.76 0-82.67-33.06-83-73.79V65.84h42.7v120.81c0 9.56 4.27 18.58 11.89 25.42a42.18 42.18 0 0028.38 10.38 41.39 41.39 0 0028.06-10.38 34.59 34.59 0 0011.89-25.15h-.3V65.84h42.71v120.81zm219.33-117.07v38.26h-59.18v153.33h-42.71V107.84h-59.48V69.58zm108.28 73.52V69.85h-42.71v191.32h42.71V143.1z"/><path class="cls-1" d="M1372.74 69.85v73.25h-43.87v38.27h43.87v79.8h42.71V69.85h-42.71z"/><path class="cls-3" d="M208.48 146.72l-3.84 3-43.31-34-69.63 54.71 4.44 3.49q35.51 27.9 71 55.8a1 1 0 001.45 0q34-26.79 68.12-53.53l.8-.64-14.14-11.11c1.28-1 2.46-1.95 3.68-2.84.13-.09.59.12.81.3q6.13 4.78 12.25 9.6l4.3 3.38c.25.19.49.4.82.67l-.81.67q-37.9 29.78-75.81 59.58a1 1 0 01-1.5 0Q126 203.46 84.89 171.17c-.28-.22-.54-.45-.9-.74l1.4-1.13q37.53-29.48 75.05-59a1.19 1.19 0 011.79 0q22.77 17.92 45.56 35.81z"/><path class="cls-3" d="M245.24 143.93l-77.38 60.77q-22.22-17.44-44.48-34.94c1.24-1 2.37-1.89 3.57-2.73.18-.13.71 0 1 .23q6 4.69 12.06 9.45 13.62 10.69 27.22 21.4a.88.88 0 001.32 0q27.83-21.88 55.68-43.76l12.5-9.81.8-.66-76.21-59.79-69.63 54.69 12.92 10.16-3.86 3L84 138.78l3.78-3q36.38-28.56 72.73-57.14a1.17 1.17 0 011.74 0q30.2 23.74 60.43 47.47l21.6 17z"/><path class="cls-3" d="M104.81 171.12l5.15-4.06q25.74-20.2 51.46-40.43a1.1 1.1 0 011.64 0q17.28 13.63 34.59 27.2l.86.71c-1.26 1-2.43 1.93-3.65 2.81-.14.1-.63-.13-.87-.32-3.65-2.84-7.27-5.7-10.9-8.55q-10.12-8-20.24-15.92a.82.82 0 00-1.24 0l-48.38 38c-.19.15-.37.31-.62.53.2.18.36.35.54.49q26.61 20.89 53.19 41.79a.86.86 0 001.3 0q24.11-19 48.25-37.91l.74-.63-3.23-2.58c1.26-1 2.43-1.92 3.61-2.81a.6.6 0 01.56.05c2.25 1.74 4.49 3.51 6.8 5.31-.26.23-.44.43-.65.59l-56 44a1 1 0 01-1.48 0l-60.56-47.57z"/><path class="cls-3" d="M216.66 143.22l-8.76-6.89-44.67-35.09c-1-.79-1-.79-2 0l-48 37.7c-.19.15-.37.32-.61.52l2 1.64c-1.23 1-2.39 1.89-3.57 2.78a.65.65 0 01-.59 0c-1.85-1.42-3.68-2.87-5.61-4.38.35-.28.6-.51.87-.72q27.95-21.94 55.87-43.91a.93.93 0 011.39 0q28.78 22.65 57.6 45.27l3.86 3-1.32 1.06L168 187.56c-1 .76-1 .76-2 0l-32-25.11-.6-.51 2.16-1.73c1.66-1.32 1.66-1.32 3.34 0l27.43 21.54.66.5z"/></svg>